<?xml version="1.0" encoding="utf-8"?>
<!-- Generator: Adobe Illustrator 27.0.0, SVG Export Plug-In . SVG Version: 6.00 Build 0)  -->
<svg version="1.1" id="graph-up" xmlns="http://www.w3.org/2000/svg" xmlns:xlink="http://www.w3.org/1999/xlink" x="0px" y="0px"
	 width="72px" height="72px" viewBox="0 0 72 72" style="enable-background:new 0 0 72 72;" xml:space="preserve">
<style type="text/css">
	.st0{fill:none;}
	.st1{fill:#231F20;}
</style>
<rect class="st0" width="72" height="72"/>
<polygon class="st1" points="24,63.983 22,63.983 22,44.381 12,44.381 12,63.983 10,63.983 10,42.381 24,42.381 "/>
<polygon class="st1" points="43,63.983 41,63.983 41,38.593 31,38.593 31,63.983 29,63.983 29,36.593 43,36.593 "/>
<polygon class="st1" points="62,63.983 60,63.983 60,26.687 50,26.687 50,63.983 48,63.983 48,24.687 62,24.687 "/>
<polygon class="st1" points="54.039,4.034 54.039,6.034 58.696,6.034 34.348,30.382 24.954,20.988 5.054,37.377 6.325,38.92 
	24.824,23.686 34.348,33.21 59.974,7.584 59.974,11.983 61.974,11.983 61.974,4.034 "/>
<rect x="6.071" y="65.988" class="st1" width="59.859" height="2"/>
</svg>
